<?xml version="1.0" encoding="UTF-8" standalone="no"?>
<!-- Created with Inkscape (http://www.inkscape.org/) -->

<svg
   xmlns:dc="http://purl.org/dc/elements/1.1/"
   xmlns:cc="http://creativecommons.org/ns#"
   xmlns:rdf="http://www.w3.org/1999/02/22-rdf-syntax-ns#"
   xmlns:svg="http://www.w3.org/2000/svg"
   xmlns="http://www.w3.org/2000/svg"
   xmlns:sodipodi="http://sodipodi.sourceforge.net/DTD/sodipodi-0.dtd"
   xmlns:inkscape="http://www.inkscape.org/namespaces/inkscape"
   width="210mm"
   height="210mm"
   viewBox="0 0 744.09449 744.09448"
   id="svg3346"
   version="1.1"
   inkscape:version="0.91 r13725"
   sodipodi:docname="moh.svg">
  <defs
     id="defs3348" />
  <sodipodi:namedview
     id="base"
     pagecolor="#ffffff"
     bordercolor="#666666"
     borderopacity="1.0"
     inkscape:pageopacity="0.0"
     inkscape:pageshadow="2"
     inkscape:zoom="0.35"
     inkscape:cx="-165"
     inkscape:cy="520"
     inkscape:document-units="px"
     inkscape:current-layer="layer1"
     showgrid="false"
     inkscape:window-width="1920"
     inkscape:window-height="1027"
     inkscape:window-x="0"
     inkscape:window-y="0"
     inkscape:window-maximized="1" />
  <metadata
     id="metadata3351">
    <rdf:RDF>
      <cc:Work
         rdf:about="">
        <dc:format>image/svg+xml</dc:format>
        <dc:type
           rdf:resource="http://purl.org/dc/dcmitype/StillImage" />
        <dc:title></dc:title>
      </cc:Work>
    </rdf:RDF>
  </metadata>
  <g
     inkscape:label="Layer 1"
     inkscape:groupmode="layer"
     id="layer1"
     transform="translate(0,-308.26772)">
    <path
       inkscape:connector-curvature="0"
       id="path62"
       style="fill:#000000;fill-rule:nonzero;stroke:#000000;stroke-width:0.09384987;stroke-linecap:butt;stroke-linejoin:round;stroke-miterlimit:4;stroke-dasharray:none"
       d="m 236.3063,911.21395 6.95812,0 0,-448.05352 -6.95812,0 0,448.05352 z" />
    <path
       inkscape:connector-curvature="0"
       id="path66"
       style="fill:#000000;stroke:#000000;stroke-width:18.7699585;stroke-linecap:butt;stroke-linejoin:round;stroke-miterlimit:4;stroke-dasharray:none"
       d="m 236.3063,911.21395 6.95812,0 0,-448.05352 -6.95812,0 0,448.05352 z" />
    <path
       inkscape:connector-curvature="0"
       id="path98"
       style="fill:#000000;fill-rule:evenodd;stroke:#000000;stroke-width:0.09384987;stroke-linecap:butt;stroke-linejoin:round;stroke-miterlimit:4;stroke-dasharray:none"
       d="m 177.05334,856.21631 c -22.73946,2.81102 -45.98002,12.163 -65.99172,27.72157 -22.739464,16.61612 -38.270151,38.79892 -43.280162,61.53838 -1.08543,7.26437 -1.08543,19.98403 0.556707,25.55049 4.98211,19.45527 20.540701,31.61825 43.808925,36.62795 6.62422,1.0857 23.37962,1.0857 31.64593,0 21.06946,-3.9243 42.72349,-13.38743 61.51071,-27.19249 22.18279,-16.61635 37.74137,-38.79915 42.75117,-61.53862 1.08561,-7.26435 1.08561,-19.98379 -0.55652,-26.07924 -5.01002,-18.25845 -20.01193,-30.56049 -42.19473,-35.5426 -6.06755,-1.08544 -21.62613,-1.64215 -28.25034,-1.08544 z" />
    <path
       inkscape:connector-curvature="0"
       d="m 573.82163,832.10878 6.95813,0 0,-448.05349 -6.95813,0 0,448.05349 z"
       style="fill:#000000;fill-rule:nonzero;stroke:#000000;stroke-width:0.09384987;stroke-linecap:butt;stroke-linejoin:round;stroke-miterlimit:4;stroke-dasharray:none"
       id="path2240" />
    <path
       inkscape:connector-curvature="0"
       d="m 573.82163,832.10878 6.95813,0 0,-448.05349 -6.95813,0 0,448.05349 z"
       style="fill:#000000;stroke:#000000;stroke-width:18.7699585;stroke-linecap:butt;stroke-linejoin:round;stroke-miterlimit:4;stroke-dasharray:none"
       id="path2242" />
    <path
       inkscape:connector-curvature="0"
       d="m 514.56869,777.11116 c -22.73947,2.81099 -45.98003,12.16299 -65.99173,27.72156 -22.73947,16.61614 -38.27014,38.79891 -43.28016,61.53838 -1.08543,7.26436 -1.08543,19.98403 0.55671,25.55048 4.98211,19.45528 20.54069,31.61827 43.80892,36.62805 6.62422,1.08561 23.37961,1.08561 31.64594,0 21.06945,-3.92436 42.72348,-13.38747 61.5107,-27.19258 22.1828,-16.61634 37.74137,-38.79913 42.75116,-61.5386 1.08563,-7.26436 1.08563,-19.9838 -0.55651,-26.07925 -5.01001,-18.25844 -20.01193,-30.5605 -42.19473,-35.54263 -6.06754,-1.08542 -21.62613,-1.64213 -28.25034,-1.08542 z"
       style="fill:#000000;fill-rule:evenodd;stroke:#000000;stroke-width:0.09384987;stroke-linecap:butt;stroke-linejoin:round;stroke-miterlimit:4;stroke-dasharray:none"
       id="path2244" />
    <path
       inkscape:connector-curvature="0"
       sodipodi:nodetypes="ccccc"
       id="path2254"
       d="m 575.12926,378.3431 -339.67102,78.56739 4.72587,49.29555 339.08028,-77.97665 -4.13513,-49.88629 z"
       style="fill:#000000;fill-opacity:1;fill-rule:evenodd;stroke:none;stroke-width:0.0049647;stroke-linecap:butt;stroke-linejoin:miter;stroke-miterlimit:4;stroke-dasharray:none;stroke-opacity:1" />
    <path
       inkscape:connector-curvature="0"
       style="fill:#000000;fill-opacity:1;fill-rule:evenodd;stroke:none;stroke-width:0.99293923;stroke-linecap:butt;stroke-linejoin:miter;stroke-miterlimit:4;stroke-dasharray:none;stroke-opacity:1"
       d="m 575.12926,488.43113 -339.67102,78.56738 4.72587,49.29556 339.08028,-77.97666 -4.13513,-49.88628 z"
       id="path2260"
       sodipodi:nodetypes="ccccc" />
  </g>
</svg>
