<?xml version="1.0" encoding="UTF-8" standalone="no"?>
<svg
   xmlns:dc="http://purl.org/dc/elements/1.1/"
   xmlns:cc="http://creativecommons.org/ns#"
   xmlns:rdf="http://www.w3.org/1999/02/22-rdf-syntax-ns#"
   xmlns:svg="http://www.w3.org/2000/svg"
   xmlns="http://www.w3.org/2000/svg"
   xmlns:sodipodi="http://sodipodi.sourceforge.net/DTD/sodipodi-0.dtd"
   xmlns:inkscape="http://www.inkscape.org/namespaces/inkscape"
   width="16px"
   height="16px"
   viewBox="0 0 16 16"
   version="1.1"
   id="svg2"
   inkscape:version="0.91 r13725"
   sodipodi:docname="mute.svg">
  <metadata
     id="metadata15">
    <rdf:RDF>
      <cc:Work
         rdf:about="">
        <dc:format>image/svg+xml</dc:format>
        <dc:type
           rdf:resource="http://purl.org/dc/dcmitype/StillImage" />
      </cc:Work>
    </rdf:RDF>
  </metadata>
  <sodipodi:namedview
     pagecolor="#ffffff"
     bordercolor="#666666"
     borderopacity="1"
     objecttolerance="10"
     gridtolerance="10"
     guidetolerance="10"
     inkscape:pageopacity="0"
     inkscape:pageshadow="2"
     inkscape:window-width="802"
     inkscape:window-height="480"
     id="namedview13"
     showgrid="false"
     inkscape:zoom="14.75"
     inkscape:cx="8"
     inkscape:cy="8"
     inkscape:window-x="0"
     inkscape:window-y="0"
     inkscape:window-maximized="0"
     inkscape:current-layer="svg2" />
  <!-- Generator: Sketch 40.3 (33839) - http://www.bohemiancoding.com/sketch -->
  <title
     id="title4">mute</title>
  <desc
     id="desc6">Created with Sketch.</desc>
  <defs
     id="defs8" />
  <g
     id="Octicons"
     stroke="none"
     stroke-width="1"
     fill="none"
     fill-rule="evenodd"
     style="fill:#ffffff">
    <g
       id="mute"
       fill="#000000"
       style="fill:#ffffff">
      <path
         d="M8,2.81 L8,13.19 C8,13.86 7.19,14.19 6.72,13.72 L3,10 L1,10 C0.45,10 0,9.55 0,9 L0,7 C0,6.45 0.45,6 1,6 L3,6 L6.72,2.28 C7.19,1.81 8,2.14 8,2.81 L8,2.81 Z M15.53,6.03 L14.47,4.97 L12.5,6.94 L10.53,4.97 L9.47,6.03 L11.44,8 L9.47,9.97 L10.53,11.03 L12.5,9.06 L14.47,11.03 L15.53,9.97 L13.56,8 L15.53,6.03 L15.53,6.03 Z"
         id="Shape"
         style="fill:#ffffff" />
    </g>
  </g>
</svg>
