<?xml version="1.0" encoding="UTF-8" standalone="no"?>
<svg
   xmlns:dc="http://purl.org/dc/elements/1.1/"
   xmlns:cc="http://creativecommons.org/ns#"
   xmlns:rdf="http://www.w3.org/1999/02/22-rdf-syntax-ns#"
   xmlns:svg="http://www.w3.org/2000/svg"
   xmlns="http://www.w3.org/2000/svg"
   xmlns:sodipodi="http://sodipodi.sourceforge.net/DTD/sodipodi-0.dtd"
   xmlns:inkscape="http://www.inkscape.org/namespaces/inkscape"
   viewBox="0 -256 1792 1792"
   id="svg3013"
   version="1.1"
   inkscape:version="0.91 r13725"
   width="100%"
   height="100%"
   sodipodi:docname="phone-moh.svg">
  <metadata
     id="metadata3023">
    <rdf:RDF>
      <cc:Work
         rdf:about="">
        <dc:format>image/svg+xml</dc:format>
        <dc:type
           rdf:resource="http://purl.org/dc/dcmitype/StillImage" />
        <dc:title></dc:title>
      </cc:Work>
    </rdf:RDF>
  </metadata>
  <defs
     id="defs3021" />
  <sodipodi:namedview
     pagecolor="#ffffff"
     bordercolor="#666666"
     borderopacity="1"
     objecttolerance="10"
     gridtolerance="10"
     guidetolerance="10"
     inkscape:pageopacity="0"
     inkscape:pageshadow="2"
     inkscape:window-width="1920"
     inkscape:window-height="1027"
     id="namedview3019"
     showgrid="false"
     inkscape:zoom="0.13169643"
     inkscape:cx="-531.5254"
     inkscape:cy="896.00002"
     inkscape:window-x="0"
     inkscape:window-y="0"
     inkscape:window-maximized="1"
     inkscape:current-layer="g2262" />
  <g
     transform="matrix(1,0,0,-1,159.45763,1293.0169)"
     id="g3015"
     style="fill:#ffcc00">
    <path
       d="m 1408,296 q 0,-27 -10,-70.5 Q 1388,182 1377,157 1356,107 1255,51 1161,0 1069,0 1042,0 1016.5,3.5 991,7 959,16 927,25 911.5,30.5 896,36 856,51 816,66 807,69 709,104 632,152 504,231 367.5,367.5 231,504 152,632 104,709 69,807 66,816 51,856 36,896 30.5,911.5 25,927 16,959 7,991 3.5,1016.5 0,1042 0,1069 q 0,92 51,186 56,101 106,122 25,11 68.5,21 43.5,10 70.5,10 14,0 21,-3 18,-6 53,-76 11,-19 30,-54 19,-35 35,-63.5 16,-28.5 31,-53.5 3,-4 17.5,-25 14.5,-21 21.5,-35.5 7,-14.5 7,-28.5 0,-20 -28.5,-50 -28.5,-30 -62,-55 -33.5,-25 -62,-53 -28.5,-28 -28.5,-46 0,-9 5,-22.5 5,-13.5 8.5,-20.5 3.5,-7 14,-24 10.5,-17 11.5,-19 76,-137 174,-235 98,-98 235,-174 2,-1 19,-11.5 17,-10.5 24,-14 7,-3.5 20.5,-8.5 13.5,-5 22.5,-5 18,0 46,28.5 28,28.5 53,62 25,33.5 55,62 30,28.5 50,28.5 14,0 28.5,-7 14.5,-7 35.5,-21.5 21,-14.5 25,-17.5 25,-15 53.5,-31 28.5,-16 63.5,-35 35,-19 54,-30 70,-35 76,-53 3,-7 3,-21 z"
       id="path3017"
       inkscape:connector-curvature="0"
       style="fill:#ffcc00" />
  </g>
  <g
     id="g2262"
     transform="matrix(20.142219,0,0,20.142219,-156.18407,-518.05021)"
     style="stroke-width:0.0049647;stroke-miterlimit:4;stroke-dasharray:none">
    <path
       inkscape:connector-curvature="0"
       id="path62"
       style="fill:#000000;fill-rule:nonzero;stroke:#000000;stroke-width:0.0049647;stroke-linecap:butt;stroke-linejoin:round;stroke-miterlimit:4;stroke-dasharray:none"
       d="m 62.451112,49.109413 0.368088,0 0,-23.702233 -0.368088,0 0,23.702233 z" />
    <path
       inkscape:connector-curvature="0"
       id="path66"
       style="fill:#000000;stroke:#000000;stroke-width:0.99293926;stroke-linecap:butt;stroke-linejoin:round;stroke-miterlimit:4;stroke-dasharray:none"
       d="m 62.451112,49.109413 0.368088,0 0,-23.702233 -0.368088,0 0,23.702233 z" />
    <path
       inkscape:connector-curvature="0"
       id="path98"
       style="fill:#000000;fill-rule:evenodd;stroke:#000000;stroke-width:0.0049647;stroke-linecap:butt;stroke-linejoin:round;stroke-miterlimit:4;stroke-dasharray:none"
       d="m 59.316604,46.200013 c -1.202928,0.148704 -2.432364,0.643428 -3.490992,1.466484 -1.202928,0.879 -2.024508,2.05248 -2.28954,3.255408 -0.05742,0.384288 -0.05742,1.057164 0.02945,1.351632 0.263556,1.029192 1.086612,1.67262 2.317512,1.93764 0.350424,0.05743 1.236792,0.05743 1.674084,0 1.114584,-0.2076 2.260092,-0.708204 3.253944,-1.4385 1.17348,-0.879012 1.996536,-2.052492 2.261556,-3.25542 0.05743,-0.384288 0.05743,-1.057152 -0.02944,-1.379604 -0.265032,-0.96588 -1.05864,-1.616664 -2.23212,-1.88022 -0.320976,-0.05742 -1.144032,-0.08687 -1.494456,-0.05742 z" />
    <path
       inkscape:connector-curvature="0"
       d="m 80.305826,44.924714 0.368088,0 0,-23.702232 -0.368088,0 0,23.702232 z"
       style="fill:#000000;fill-rule:nonzero;stroke:#000000;stroke-width:0.0049647;stroke-linecap:butt;stroke-linejoin:round;stroke-miterlimit:4;stroke-dasharray:none"
       id="path2240" />
    <path
       inkscape:connector-curvature="0"
       d="m 80.305826,44.924714 0.368088,0 0,-23.702232 -0.368088,0 0,23.702232 z"
       style="fill:#000000;stroke:#000000;stroke-width:0.99293926;stroke-linecap:butt;stroke-linejoin:round;stroke-miterlimit:4;stroke-dasharray:none"
       id="path2242" />
    <path
       inkscape:connector-curvature="0"
       d="m 77.171318,42.015315 c -1.202928,0.148703 -2.432364,0.643428 -3.490992,1.466483 -1.202928,0.879001 -2.024508,2.05248 -2.28954,3.255408 -0.05742,0.384288 -0.05742,1.057164 0.02945,1.351632 0.263556,1.029193 1.086612,1.672621 2.317512,1.93764 0.350424,0.05743 1.236792,0.05743 1.674084,0 1.114584,-0.2076 2.260092,-0.708203 3.253944,-1.438499 1.17348,-0.879012 1.996536,-2.052492 2.261556,-3.25542 0.05743,-0.384288 0.05743,-1.057152 -0.02944,-1.379604 -0.265032,-0.96588 -1.05864,-1.616664 -2.23212,-1.880221 -0.320976,-0.05742 -1.144032,-0.08687 -1.494456,-0.05742 z"
       style="fill:#000000;fill-rule:evenodd;stroke:#000000;stroke-width:0.0049647;stroke-linecap:butt;stroke-linejoin:round;stroke-miterlimit:4;stroke-dasharray:none"
       id="path2244" />
    <path
       inkscape:connector-curvature="0"
       sodipodi:nodetypes="ccccc"
       id="path2254"
       d="m 80.375,20.920305 -17.96875,4.15625 0.25,2.607757 17.9375,-4.125 -0.21875,-2.639007 z"
       style="fill:#000000;fill-opacity:1;fill-rule:evenodd;stroke:none;stroke-width:0.0049647;stroke-linecap:butt;stroke-linejoin:miter;stroke-opacity:1;stroke-miterlimit:4;stroke-dasharray:none" />
    <path
       inkscape:connector-curvature="0"
       style="fill:#000000;fill-opacity:1;fill-rule:evenodd;stroke:none;stroke-width:0.99293926;stroke-linecap:butt;stroke-linejoin:miter;stroke-opacity:1;stroke-miterlimit:4;stroke-dasharray:none"
       d="m 80.375,26.744011 -17.96875,4.15625 0.25,2.607757 17.9375,-4.125 -0.21875,-2.639007 z"
       id="path2260"
       sodipodi:nodetypes="ccccc" />
  </g>
</svg>
