<?xml version="1.0" encoding="UTF-8" standalone="no"?>
<svg
   xmlns:dc="http://purl.org/dc/elements/1.1/"
   xmlns:cc="http://creativecommons.org/ns#"
   xmlns:rdf="http://www.w3.org/1999/02/22-rdf-syntax-ns#"
   xmlns:svg="http://www.w3.org/2000/svg"
   xmlns="http://www.w3.org/2000/svg"
   xmlns:sodipodi="http://sodipodi.sourceforge.net/DTD/sodipodi-0.dtd"
   xmlns:inkscape="http://www.inkscape.org/namespaces/inkscape"
   width="16"
   height="16"
   viewBox="0 0 16 16"
   version="1.1"
   id="svg2"
   inkscape:version="0.91 r13725"
   sodipodi:docname="pindown.svg">
  <metadata
     id="metadata15">
    <rdf:RDF>
      <cc:Work
         rdf:about="">
        <dc:format>image/svg+xml</dc:format>
        <dc:type
           rdf:resource="http://purl.org/dc/dcmitype/StillImage" />
        <dc:title>pin</dc:title>
      </cc:Work>
    </rdf:RDF>
  </metadata>
  <sodipodi:namedview
     pagecolor="#ffffff"
     bordercolor="#666666"
     borderopacity="1"
     objecttolerance="10"
     gridtolerance="10"
     guidetolerance="10"
     inkscape:pageopacity="0"
     inkscape:pageshadow="2"
     inkscape:window-width="1920"
     inkscape:window-height="1027"
     id="namedview13"
     showgrid="false"
     inkscape:zoom="14.75"
     inkscape:cx="-4.8813559"
     inkscape:cy="8"
     inkscape:window-x="0"
     inkscape:window-y="0"
     inkscape:window-maximized="1"
     inkscape:current-layer="pin" />
  <!-- Generator: Sketch 40.3 (33839) - http://www.bohemiancoding.com/sketch -->
  <title
     id="title4">pin</title>
  <desc
     id="desc6">Created with Sketch.</desc>
  <defs
     id="defs8" />
  <g
     id="Octicons"
     transform="matrix(0.71036192,-0.70383659,0.70383659,0.71036192,-3.3705377,5.0942248)"
     style="fill:none;fill-rule:evenodd;stroke:none;stroke-width:1">
    <g
       id="pin"
       style="fill:#000000">
      <path
         d="m 7.9507918,3.8461528 0,0.8 0.5,1 -4.5,3 -3.80000002,0 c -0.44,0 -0.67,0.53 -0.34,0.86 l 3.14000002,3.1400002 -1.7307294,2.226342 0.4333806,0.373862 2.2973488,-1.600204 3.14,3.14 c 0.33,0.33 0.86,0.09 0.86,-0.34 l 0,-3.8 3.0000002,-4.5000002 1,0.5 0.8,0 c 0.44,0 0.67,-0.53 0.34,-0.86 l -4.2800002,-4.28 c -0.33,-0.33 -0.86,-0.09 -0.86,0.34 z"
         id="Shape"
         inkscape:connector-curvature="0"
         sodipodi:nodetypes="ccccssccccsscccssscc" />
      <ellipse
         style="fill:none;fill-opacity:1;stroke:#000000;stroke-width:0.08619384;stroke-miterlimit:4;stroke-dasharray:none"
         id="path3390"
         cx="11.675622"
         cy="9.5498428"
         transform="matrix(0.71036192,0.70383659,-0.70383659,0.71036192,0,0)"
         rx="0.85436064"
         ry="0.4136827" />
    </g>
  </g>
</svg>
