<?xml version="1.0" encoding="UTF-8" standalone="no"?>
<svg
   xmlns:dc="http://purl.org/dc/elements/1.1/"
   xmlns:cc="http://creativecommons.org/ns#"
   xmlns:rdf="http://www.w3.org/1999/02/22-rdf-syntax-ns#"
   xmlns:svg="http://www.w3.org/2000/svg"
   xmlns="http://www.w3.org/2000/svg"
   xmlns:sodipodi="http://sodipodi.sourceforge.net/DTD/sodipodi-0.dtd"
   xmlns:inkscape="http://www.inkscape.org/namespaces/inkscape"
   width="19"
   height="16"
   viewBox="0 0 19 16"
   version="1.1"
   id="svg2"
   inkscape:version="0.91 r13725"
   sodipodi:docname="pinup.svg">
  <metadata
     id="metadata15">
    <rdf:RDF>
      <cc:Work
         rdf:about="">
        <dc:format>image/svg+xml</dc:format>
        <dc:type
           rdf:resource="http://purl.org/dc/dcmitype/StillImage" />
        <dc:title>pin</dc:title>
      </cc:Work>
    </rdf:RDF>
  </metadata>
  <sodipodi:namedview
     pagecolor="#ffffff"
     bordercolor="#666666"
     borderopacity="1"
     objecttolerance="10"
     gridtolerance="10"
     guidetolerance="10"
     inkscape:pageopacity="0"
     inkscape:pageshadow="2"
     inkscape:window-width="1510"
     inkscape:window-height="814"
     id="namedview13"
     showgrid="false"
     inkscape:zoom="14.75"
     inkscape:cx="8"
     inkscape:cy="8"
     inkscape:window-x="0"
     inkscape:window-y="0"
     inkscape:window-maximized="0"
     inkscape:current-layer="svg2" />
  <!-- Generator: Sketch 40.3 (33839) - http://www.bohemiancoding.com/sketch -->
  <title
     id="title4">pin</title>
  <desc
     id="desc6">Created with Sketch.</desc>
  <defs
     id="defs8" />
  <g
     id="Octicons"
     transform="matrix(0.70142582,0.71274247,-0.71274247,0.70142582,10.645508,-3.1122526)"
     style="fill:none;fill-rule:evenodd;stroke:none;stroke-width:1">
    <g
       id="pin"
       style="fill:#000000">
      <path
         d="M 10,1.2 10,2 10.5,3 6,6 2.2,6 C 1.76,6 1.53,6.53 1.86,6.86 L 5,10 1,15 6,11 9.14,14.14 C 9.47,14.47 10,14.23 10,13.8 L 10,10 13,5.5 14,6 14.8,6 c 0.44,0 0.67,-0.53 0.34,-0.86 L 10.86,0.86 C 10.53,0.53 10,0.77 10,1.2 l 0,0 z"
         id="Shape"
         inkscape:connector-curvature="0" />
    </g>
  </g>
</svg>
