<?xml version="1.0" encoding="UTF-8" standalone="no"?>
<svg
   xmlns:dc="http://purl.org/dc/elements/1.1/"
   xmlns:cc="http://creativecommons.org/ns#"
   xmlns:rdf="http://www.w3.org/1999/02/22-rdf-syntax-ns#"
   xmlns:svg="http://www.w3.org/2000/svg"
   xmlns="http://www.w3.org/2000/svg"
   xmlns:sodipodi="http://sodipodi.sourceforge.net/DTD/sodipodi-0.dtd"
   xmlns:inkscape="http://www.inkscape.org/namespaces/inkscape"
   width="12px"
   height="16px"
   viewBox="0 0 12 16"
   version="1.1"
   id="svg2"
   inkscape:version="0.91 r13725"
   sodipodi:docname="trashcan.svg">
  <metadata
     id="metadata15">
    <rdf:RDF>
      <cc:Work
         rdf:about="">
        <dc:format>image/svg+xml</dc:format>
        <dc:type
           rdf:resource="http://purl.org/dc/dcmitype/StillImage" />
      </cc:Work>
    </rdf:RDF>
  </metadata>
  <sodipodi:namedview
     pagecolor="#ffffff"
     bordercolor="#666666"
     borderopacity="1"
     objecttolerance="10"
     gridtolerance="10"
     guidetolerance="10"
     inkscape:pageopacity="0"
     inkscape:pageshadow="2"
     inkscape:window-width="802"
     inkscape:window-height="480"
     id="namedview13"
     showgrid="false"
     inkscape:zoom="14.75"
     inkscape:cx="6"
     inkscape:cy="8"
     inkscape:window-x="0"
     inkscape:window-y="0"
     inkscape:window-maximized="0"
     inkscape:current-layer="svg2" />
  <!-- Generator: Sketch 40.3 (33839) - http://www.bohemiancoding.com/sketch -->
  <title
     id="title4">trashcan</title>
  <desc
     id="desc6">Created with Sketch.</desc>
  <defs
     id="defs8" />
  <g
     id="Octicons"
     stroke="none"
     stroke-width="1"
     fill="none"
     fill-rule="evenodd"
     style="fill:#ffffff">
    <g
       id="trashcan"
       fill="#000000"
       style="fill:#ffffff">
      <path
         d="M11,2 L9,2 C9,1.45 8.55,1 8,1 L5,1 C4.45,1 4,1.45 4,2 L2,2 C1.45,2 1,2.45 1,3 L1,4 C1,4.55 1.45,5 2,5 L2,14 C2,14.55 2.45,15 3,15 L10,15 C10.55,15 11,14.55 11,14 L11,5 C11.55,5 12,4.55 12,4 L12,3 C12,2.45 11.55,2 11,2 L11,2 Z M10,14 L3,14 L3,5 L4,5 L4,13 L5,13 L5,5 L6,5 L6,13 L7,13 L7,5 L8,5 L8,13 L9,13 L9,5 L10,5 L10,14 L10,14 Z M11,4 L2,4 L2,3 L11,3 L11,4 L11,4 Z"
         id="Shape"
         style="fill:#ffffff" />
    </g>
  </g>
</svg>
