<?xml version="1.0" encoding="UTF-8" standalone="no"?>
<svg
   xmlns:dc="http://purl.org/dc/elements/1.1/"
   xmlns:cc="http://creativecommons.org/ns#"
   xmlns:rdf="http://www.w3.org/1999/02/22-rdf-syntax-ns#"
   xmlns:svg="http://www.w3.org/2000/svg"
   xmlns="http://www.w3.org/2000/svg"
   xmlns:sodipodi="http://sodipodi.sourceforge.net/DTD/sodipodi-0.dtd"
   xmlns:inkscape="http://www.inkscape.org/namespaces/inkscape"
   width="16px"
   height="16px"
   viewBox="0 0 16 16"
   version="1.1"
   id="svg2"
   inkscape:version="0.91 r13725"
   sodipodi:docname="unmute.svg">
  <metadata
     id="metadata15">
    <rdf:RDF>
      <cc:Work
         rdf:about="">
        <dc:format>image/svg+xml</dc:format>
        <dc:type
           rdf:resource="http://purl.org/dc/dcmitype/StillImage" />
      </cc:Work>
    </rdf:RDF>
  </metadata>
  <sodipodi:namedview
     pagecolor="#ffffff"
     bordercolor="#666666"
     borderopacity="1"
     objecttolerance="10"
     gridtolerance="10"
     guidetolerance="10"
     inkscape:pageopacity="0"
     inkscape:pageshadow="2"
     inkscape:window-width="802"
     inkscape:window-height="480"
     id="namedview13"
     showgrid="false"
     inkscape:zoom="14.75"
     inkscape:cx="8"
     inkscape:cy="8"
     inkscape:window-x="0"
     inkscape:window-y="0"
     inkscape:window-maximized="0"
     inkscape:current-layer="svg2" />
  <!-- Generator: Sketch 40.3 (33839) - http://www.bohemiancoding.com/sketch -->
  <title
     id="title4">unmute</title>
  <desc
     id="desc6">Created with Sketch.</desc>
  <defs
     id="defs8" />
  <g
     id="Octicons"
     stroke="none"
     stroke-width="1"
     fill="none"
     fill-rule="evenodd"
     style="fill:#ffffff">
    <g
       id="unmute"
       fill="#000000"
       style="fill:#ffffff">
      <path
         d="M12,8.02 C12,9.11 11.55,10.11 10.83,10.85 L10.16,10.18 C10.71,9.62 11.05,8.87 11.05,8.02 C11.05,7.17 10.71,6.41 10.16,5.86 L10.83,5.19 C11.55,5.91 12,6.91 12,8.02 L12,8.02 Z M7.72,2.28 L4,6 L2,6 C1.45,6 1,6.45 1,7 L1,9 C1,9.55 1.45,10 2,10 L4,10 L7.72,13.72 C8.19,14.19 9,13.86 9,13.19 L9,2.81 C9,2.14 8.19,1.81 7.72,2.28 L7.72,2.28 Z M13.66,2.36 L12.99,3.03 C14.27,4.31 15.05,6.06 15.05,8.01 C15.05,9.95 14.27,11.71 12.99,12.99 L13.66,13.66 C15.11,12.21 16,10.21 16,8 C16,5.78 15.11,3.78 13.66,2.34 L13.66,2.36 Z M12.25,3.77 L11.56,4.44 C12.48,5.36 13.04,6.63 13.04,8.02 C13.04,9.41 12.48,10.68 11.56,11.58 L12.25,12.25 C13.33,11.17 14,9.67 14,8.02 C14,6.37 13.33,4.86 12.25,3.77 L12.25,3.77 Z"
         id="Shape"
         style="fill:#ffffff" />
    </g>
  </g>
</svg>
