<?xml version="1.0" encoding="UTF-8" standalone="no"?>
<!-- Created with Inkscape (http://www.inkscape.org/) -->

<svg
   xmlns:dc="http://purl.org/dc/elements/1.1/"
   xmlns:cc="http://creativecommons.org/ns#"
   xmlns:rdf="http://www.w3.org/1999/02/22-rdf-syntax-ns#"
   xmlns:svg="http://www.w3.org/2000/svg"
   xmlns="http://www.w3.org/2000/svg"
   xmlns:sodipodi="http://sodipodi.sourceforge.net/DTD/sodipodi-0.dtd"
   xmlns:inkscape="http://www.inkscape.org/namespaces/inkscape"
   width="19.549999mm"
   height="22.9mm"
   viewBox="0 0 69.271651 81.141731"
   id="svg2"
   version="1.1"
   inkscape:version="0.91 r13725"
   sodipodi:docname="oasterisk.svg">
  <defs
     id="defs4" />
  <sodipodi:namedview
     id="base"
     pagecolor="#ffffff"
     bordercolor="#666666"
     borderopacity="1.0"
     inkscape:pageopacity="0"
     inkscape:pageshadow="2"
     inkscape:zoom="5.6"
     inkscape:cx="65.214588"
     inkscape:cy="70.546869"
     inkscape:document-units="mm"
     inkscape:current-layer="layer1"
     showgrid="false"
     inkscape:window-width="1920"
     inkscape:window-height="1027"
     inkscape:window-x="0"
     inkscape:window-y="0"
     inkscape:window-maximized="1"
     showborder="true" />
  <metadata
     id="metadata7">
    <rdf:RDF>
      <cc:Work
         rdf:about="">
        <dc:format>image/svg+xml</dc:format>
        <dc:type
           rdf:resource="http://purl.org/dc/dcmitype/StillImage" />
        <dc:title></dc:title>
      </cc:Work>
    </rdf:RDF>
  </metadata>
  <g
     inkscape:label="Layer 1"
     inkscape:groupmode="layer"
     id="layer1"
     transform="translate(0,-971.22047)">
    <g
       style="font-style:normal;font-weight:normal;font-size:40px;line-height:125%;font-family:Sans;letter-spacing:0px;word-spacing:0px;fill:#000000;fill-opacity:1;stroke:none;stroke-width:1px;stroke-linecap:butt;stroke-linejoin:miter;stroke-opacity:1"
       id="text3336"
       transform="translate(-65.892858,903.57144)">
      <path
         style="font-style:normal;font-variant:normal;font-weight:bold;font-stretch:normal;font-size:180px;font-family:'URW Bookman L';-inkscape-font-specification:'URW Bookman L Bold'"
         d="M 34.978516 11.222656 C 29.758516 11.222656 26.519531 14.10125 26.519531 18.78125 C 26.519531 20.22125 27.058984 22.382344 27.958984 24.902344 L 28.539062 26.396484 A 20.178572 20.178572 0 0 0 21.794922 30.066406 L 20.757812 28.861328 C 17.517813 25.081328 14.998516 23.460938 12.478516 23.460938 C 7.9785152 23.460938 4.0195313 28.141638 4.0195312 33.181641 C 4.0195312 37.141641 7.2579685 39.841875 13.917969 40.921875 L 14.996094 41.09375 A 20.178572 20.178572 0 0 0 14.464844 45.605469 A 20.178572 20.178572 0 0 0 14.753906 48.996094 L 13.738281 49.201172 C 6.7182815 50.461172 3.8378906 52.801406 3.8378906 56.941406 C 3.8378906 61.621406 7.7994532 66.482422 11.939453 66.482422 C 14.999453 66.482422 17.518125 64.862031 20.578125 61.082031 L 21.056641 60.494141 A 20.178572 20.178572 0 0 0 27.882812 64.591797 L 27.597656 65.402344 C 26.517656 68.462344 26.158203 70.2625 26.158203 72.0625 C 26.158203 76.2025 29.579141 79.082031 34.619141 79.082031 C 39.659141 79.082031 42.898438 76.201172 42.898438 71.701172 C 42.898438 70.081172 42.359297 68.102344 41.279297 65.402344 L 41.021484 64.724609 A 20.178572 20.178572 0 0 0 48.009766 60.6875 L 48.658203 61.441406 C 52.078203 65.401406 54.419141 66.841797 57.119141 66.841797 C 61.439141 66.841797 65.398438 62.162734 65.398438 57.302734 C 65.398438 53.162734 62.158047 50.6425 55.498047 49.5625 L 54.453125 49.394531 A 20.178572 20.178572 0 0 0 54.822266 45.605469 A 20.178572 20.178572 0 0 0 54.380859 41.527344 L 55.677734 41.28125 C 62.517734 40.02125 65.578125 37.501328 65.578125 33.361328 C 65.578125 28.501325 61.438828 23.822266 57.298828 23.822266 C 54.418828 23.822266 51.897891 25.442344 48.837891 29.402344 L 47.966797 30.474609 A 20.178572 20.178572 0 0 0 41.242188 26.560547 L 41.818359 24.902344 C 42.898359 21.482344 43.257812 20.221875 43.257812 18.421875 C 43.257812 14.101875 39.838516 11.222656 34.978516 11.222656 z M 34.464844 27.445312 A 18.160715 18.160715 0 0 1 52.625 45.605469 A 18.160715 18.160715 0 0 1 34.464844 63.767578 A 18.160715 18.160715 0 0 1 16.302734 45.605469 A 18.160715 18.160715 0 0 1 34.464844 27.445312 z "
         transform="translate(65.892858,67.64903)"
         id="path3708" />
    </g>
    <path
       style="fill:#000000;fill-opacity:1"
       d="M 34.642578 33.498047 A 12.107143 12.107143 0 0 0 22.535156 45.605469 A 12.107143 12.107143 0 0 0 34.642578 57.712891 A 12.107143 12.107143 0 0 0 46.75 45.605469 A 12.107143 12.107143 0 0 0 34.642578 33.498047 z M 34.642578 35.253906 A 10.351607 10.351607 0 0 1 44.994141 45.605469 A 10.351607 10.351607 0 0 1 34.642578 55.957031 A 10.351607 10.351607 0 0 1 24.291016 45.605469 A 10.351607 10.351607 0 0 1 34.642578 35.253906 z "
       id="path3342-3"
       transform="translate(0,971.22047)" />
    <text
       xml:space="preserve"
       style="font-style:normal;font-weight:normal;font-size:40px;line-height:125%;font-family:Sans;letter-spacing:0px;word-spacing:0px;fill:#000000;fill-opacity:1;stroke:none;stroke-width:1px;stroke-linecap:butt;stroke-linejoin:miter;stroke-opacity:1"
       x="35.892857"
       y="172.00507"
       id="text3400"
       sodipodi:linespacing="125%"><tspan
         sodipodi:role="line"
         id="tspan3402"
         x="35.892857"
         y="172.00507"
         style="font-style:normal;font-variant:normal;font-weight:normal;font-stretch:normal;font-family:'WenQuanYi Micro Hei Mono';-inkscape-font-specification:'WenQuanYi Micro Hei Mono';fill:#000000">📞</tspan></text>
    <g
       style="font-style:normal;font-weight:normal;font-size:40px;line-height:125%;font-family:Sans;letter-spacing:0px;word-spacing:0px;fill:#000000;fill-opacity:1;stroke:none;stroke-width:1px;stroke-linecap:butt;stroke-linejoin:miter;stroke-opacity:1"
       id="text3404"
       transform="matrix(1.4878813,0,0,1.4878813,-12.972776,833.44078)">
      <path
         d="m 31.967076,94.094902 0.175781,0 c 7.851563,0.221354 13.450521,1.341146 16.796875,3.359375 3.528646,2.135415 5.292969,4.309893 5.292969,6.523433 -0.46875,1.99219 -1.373698,2.98829 -2.714844,2.98829 -0.07813,0 -0.16276,-0.006 -0.253906,-0.0195 l -7.949219,-2.73437 c -0.78125,-0.23437 -1.171875,-0.63151 -1.171875,-1.19141 0,-0.24739 0.07813,-0.53385 0.234375,-0.85937 0.885417,-0.92448 1.328125,-1.59505 1.328125,-2.01172 0,-0.299479 -0.221354,-0.46875 -0.664062,-0.507813 l -21.953125,0 c -0.442709,0.03906 -0.664063,0.208331 -0.664063,0.507813 0,0.41667 0.442708,1.08724 1.328125,2.01172 0.15625,0.3125 0.234375,0.59896 0.234375,0.85937 0,0.5599 -0.397135,0.95704 -1.191406,1.19141 l -7.949219,2.73437 c -0.09115,0.013 -0.175781,0.0195 -0.253906,0.0195 -1.328125,0 -2.233073,-0.9961 -2.7148439,-2.98829 0,-2.21354 1.7708329,-4.388018 5.3124999,-6.523433 3.333333,-1.992187 8.925781,-3.111979 16.777344,-3.359375 z"
         style="font-style:normal;font-variant:normal;font-weight:500;font-stretch:normal;font-family:'Samyak Gujarati';-inkscape-font-specification:'Samyak Gujarati Medium'"
         id="path3705"
         inkscape:connector-curvature="0"
         sodipodi:nodetypes="ccccsccscsccscsccsccc" />
    </g>
    <circle
       style="fill:#000000;fill-opacity:1"
       id="path3408"
       cx="35"
       cy="1001.6479"
       r="2.3214285" />
    <circle
       style="fill:#000000;fill-opacity:1"
       id="path3408-1"
       cx="42.321419"
       cy="1003.9694"
       r="2.3214285"
       inkscape:transform-center-x="-2.8571429"
       inkscape:transform-center-y="0.17857143" />
    <circle
       style="fill:#000000;fill-opacity:1"
       id="path3408-12"
       cx="26.964281"
       cy="1003.7908"
       r="2.3214285" />
    <circle
       style="fill:#000000;fill-opacity:1"
       id="path3408-8"
       cx="21.607141"
       cy="1009.3265"
       r="2.3214285" />
    <circle
       style="fill:#000000;fill-opacity:1"
       id="path3408-87"
       cx="19.464289"
       cy="1016.4694"
       r="2.3214285" />
    <circle
       style="fill:#000000;fill-opacity:1"
       id="path3408-10"
       cx="21.249994"
       cy="1024.3265"
       r="2.3214285" />
    <circle
       style="fill:#000000;fill-opacity:1"
       id="path3408-107"
       cx="26.964289"
       cy="1029.8622"
       r="2.3214285" />
    <circle
       style="fill:#000000;fill-opacity:1"
       id="path3408-9"
       cx="47.5"
       cy="1009.148"
       r="2.3214285" />
    <path
       style="fill:#000000;fill-opacity:1"
       d="m 34.285712,1028.0765 3.75,8.2143 -7.142856,0 z"
       id="rect3701"
       inkscape:connector-curvature="0"
       sodipodi:nodetypes="cccc" />
  </g>
</svg>
